<svg width="51" height="51" viewBox="0 0 51 51" fill="none" xmlns="http://www.w3.org/2000/svg">
<path fill-rule="evenodd" clip-rule="evenodd" d="M37.5015 17.3395C37.9191 17.757 38.2199 18.2767 38.3742 18.8467C39.2623 22.4216 39.0571 28.0678 38.3914 31.7807C38.2372 32.3507 37.9363 32.8703 37.5188 33.2879C37.1012 33.7054 36.5816 34.0063 36.0116 34.1606C33.9249 34.7296 25.5264 34.7296 25.5264 34.7296C25.5264 34.7296 17.1279 34.7296 15.0412 34.1606C14.4712 34.0063 13.9515 33.7054 13.534 33.2879C13.1165 32.8703 12.8156 32.3507 12.6613 31.7807C11.768 28.2212 12.0129 22.5717 12.6441 18.8639C12.7983 18.2939 13.0992 17.7743 13.5168 17.3567C13.9343 16.9392 14.454 16.6383 15.024 16.4841C17.1106 15.9149 25.5091 15.8977 25.5091 15.8977C25.5091 15.8977 33.9076 15.8977 35.9943 16.4668C36.5643 16.621 37.084 16.9219 37.5015 17.3395ZM29.8032 25.3137L22.8361 29.3491V21.2783L29.8032 25.3137Z" fill="#FFFEF2"/>
</svg>
